<svg viewBox="140 40 400 400" xmlns="http://www.w3.org/2000/svg">
  <g stroke="#fff" stroke-linecap="round" stroke-linejoin="round" fill="none" stroke-width="38">
    <line x1="175" y1="415" x2="340" y2="58"/>
    <line x1="340" y1="58" x2="505" y2="415"/>
    <line x1="232" y1="272" x2="448" y2="272"/>
    <line x1="195" y1="112" x2="195" y2="415"/>
    <path d="M 195,112 Q 310,112 310,182 Q 310,252 195,252"/>
    <path d="M 195,252 Q 325,252 325,330 Q 325,415 195,415"/>
    <line x1="485" y1="112" x2="485" y2="415"/>
    <path d="M 485,112 Q 370,112 370,182 Q 370,252 485,252"/>
    <path d="M 485,252 Q 355,252 355,330 Q 355,415 485,415"/>
  </g>
</svg>
